Coordinates
version=1
nRows=10
nColumns=40
inDegrees=yes

Units are S.I. units (second, meters, Newtons, ...)
If the header above contains a line with 'inDegrees', this indicates whether rotational values are in degrees (yes) or radians (no).

endheader
time	pelvis_tilt	pelvis_list	pelvis_rotation	pelvis_tx	pelvis_ty	pelvis_tz	hip_flexion_r	hip_adduction_r	hip_rotation_r	knee_angle_r	knee_angle_r_beta	ankle_angle_r	subtalar_angle_r	mtp_angle_r	hip_flexion_l	hip_adduction_l	hip_rotation_l	knee_angle_l	knee_angle_l_beta	ankle_angle_l	subtalar_angle_l	mtp_angle_l	lumbar_extension	lumbar_bending	lumbar_rotation	arm_flex_r	arm_add_r	arm_rot_r	elbow_flex_r	pro_sup_r	wrist_flex_r	wrist_dev_r	arm_flex_l	arm_add_l	arm_rot_l	elbow_flex_l	pro_sup_l	wrist_flex_l	wrist_dev_l
      3.26000000	    -17.18613477	      0.96108889	     -2.46630651	     -0.32681763	      0.92873079	     -1.14533905	      7.04356046	     -2.45772131	      9.72210285	     66.96272485	      1.16872002	    -12.48459647	      0.00000000	      0.00000000	     49.76465992	      0.95773226	     -4.96731678	     58.08756582	      1.01381928	     13.95699800	      0.00000000	      0.00000000	    -12.21513619	     -7.11942953	      5.24158875	     89.91997755	     -0.44341351	     19.47463285	     39.41448283	     84.81366016	      0.00000000	      0.00000000	     89.94943335	     -5.89717194	     26.47926146	     44.46445452	     85.16822714	      0.00000000	      0.00000000
      3.26500000	    -17.33602238	      1.03813333	     -2.46079575	     -0.32724372	      0.92748985	     -1.14523203	      7.08447687	     -2.54953905	      9.74121582	     66.96032021	      1.16867806	    -12.51124767	      0.00000000	      0.00000000	     50.07558703	      1.00038624	     -4.98236664	     58.32490649	      1.01796165	     13.99906315	      0.00000000	      0.00000000	    -12.15779579	     -7.22557460	      5.15496170	     89.92142899	     -0.37975077	     19.40455450	     39.47222960	     84.63037044	      0.00000000	      0.00000000	     89.94986962	     -5.87926467	     26.21137211	     44.57994593	     85.15269463	      0.00000000	      0.00000000
      3.27000000	    -17.51973993	      1.00000132	     -2.45585850	     -0.32769475	      0.92602054	     -1.14517030	      7.14716883	     -2.51450688	      9.75568600	     66.97211923	      1.16888399	    -12.46253861	      0.00000000	      0.00000000	     50.47320609	      0.93865348	     -4.94425052	     58.66067046	      1.02382184	     14.08811505	      0.00000000	      0.00000000	    -12.06384312	     -7.19238277	      5.15918787	     89.92261878	     -0.48478854	     19.61141389	     39.62648657	     84.42877025	      0.00000000	      0.00000000	     89.95029507	     -5.84804469	     26.06468631	     44.63187289	     84.97239418	      0.00000000	      0.00000000
      3.27500000	    -17.67109895	      1.05068081	     -2.43287243	     -0.32806496	      0.92482974	     -1.14506400	      7.18680469	     -2.61288296	      9.67300603	     66.92802786	      1.16811445	    -12.67251490	      0.00000000	      0.00000000	     50.79734497	      0.94971218	     -5.01766287	     58.93743680	      1.02865232	     14.17602598	      0.00000000	      0.00000000	    -12.03498663	     -7.25727117	      5.04376934	     89.92306680	     -0.27100508	     19.14660321	     39.65214119	     84.47385130	      0.00000000	      0.00000000	     89.95116602	     -5.82114350	     25.67818562	     44.81148256	     84.92462890	      0.00000000	      0.00000000
      3.28000000	    -17.76790596	      1.05376295	     -2.45995206	     -0.32847131	      0.92367096	     -1.14498080	      7.17935872	     -2.63953913	      9.71585839	     66.90563665	      1.16772365	    -12.82738626	      0.00000000	      0.00000000	     51.02187429	      0.92403980	     -4.98708554	     59.14405598	      1.03225851	     14.44747106	      0.00000000	      0.00000000	    -12.06248001	     -7.27244533	      5.03407063	     89.92494831	     -0.38794815	     19.78964452	     39.92681685	     81.66926043	      0.00000000	      0.00000000	     89.95139441	     -5.91875774	     25.97783398	     45.08518737	     82.09250017	      0.00000000	      0.00000000
      3.28500000	    -18.02419240	      1.10780189	     -2.49925277	     -0.32904519	      0.92201933	     -1.14474943	      7.36581579	     -2.66365005	      9.80603024	     67.01793013	      1.16968354	    -12.65278405	      0.00000000	      0.00000000	     51.51984815	      0.87906146	     -5.07228795	     59.51999766	      1.03881993	     14.42913576	      0.00000000	      0.00000000	    -11.86179294	     -7.36164893	      5.05634150	     89.92519954	     -0.31117189	     19.06079062	     39.83563796	     84.48015981	      0.00000000	      0.00000000	     89.95201589	     -5.76521270	     25.29913253	     44.98470445	     84.91428711	      0.00000000	      0.00000000
      3.29000000	    -18.17065014	      1.08021539	     -2.49092211	     -0.32948493	      0.92070298	     -1.14464781	      7.41175840	     -2.65876785	      9.80500087	     67.01725811	      1.16967181	    -12.62425239	      0.00000000	      0.00000000	     51.85210878	      0.83215373	     -5.05065323	     59.81140471	      1.04390594	     14.55058855	      0.00000000	      0.00000000	    -11.82363191	     -7.35416918	      5.05288508	     89.92633558	     -0.30032977	     18.88570087	     39.94649180	     84.40827752	      0.00000000	      0.00000000	     89.95244005	     -5.69815328	     25.08412729	     45.06978836	     84.86268549	      0.00000000	      0.00000000
      3.29500000	    -18.33476511	      1.10618701	     -2.46770940	     -0.32997349	      0.91943005	     -1.14453060	      7.48935515	     -2.70792450	      9.77354563	     67.04565985	      1.17016751	    -12.75691858	      0.00000000	      0.00000000	     52.17575701	      0.84637819	     -5.02140671	     60.01032352	      1.04737773	     14.64352394	      0.00000000	      0.00000000	    -11.77599681	     -7.39520643	      4.98821064	     89.92735923	     -0.28035583	     18.77422163	     40.05714980	     84.45001701	      0.00000000	      0.00000000	     89.95301825	     -5.68767483	     24.88334178	     45.19358907	     84.80019738	      0.00000000	      0.00000000
      3.30000000	    -18.51927167	      1.13140716	     -2.48615566	     -0.33042723	      0.91802899	     -1.14435712	      7.57990524	     -2.71489674	      9.82882335	     67.09398155	      1.17101089	    -12.74816677	      0.00000000	      0.00000000	     52.53625225	      0.79416436	     -5.08259636	     60.28374671	      1.05214987	     14.77675409	      0.00000000	      0.00000000	    -11.69013038	     -7.44563673	      4.96271498	     89.92828570	     -0.24715100	     18.58773312	     40.18260131	     84.61427092	      0.00000000	      0.00000000	     89.95338949	     -5.68609429	     24.68195715	     45.31042142	     84.58310167	      0.00000000	      0.00000000
      3.30500000	    -18.72597977	      1.05736426	     -2.57743021	     -0.33105463	      0.91661430	     -1.14401251	      7.72263556	     -2.58978244	      9.98780765	     67.19107427	      1.17270547	    -12.24283771	      0.00000000	      0.00000000	     52.96917440	      0.66572721	     -4.94694815	     60.60404495	      1.05774012	     14.52565964	      0.00000000	      0.00000000	    -11.56942507	     -7.39317521	      5.12158701	     89.92870986	     -0.07282001	     18.47300177	     40.05790744	     79.88968791	      0.00000000	      0.00000000	     89.95392247	     -5.44244151	     24.69213329	     45.27737412	     79.90271866	      0.00000000	      0.00000000
